<svg width="333" height="152" viewBox="0 0 333 152" fill="none" xmlns="http://www.w3.org/2000/svg">
<g clip-path="url(#clip0_2001_994)">
<rect width="333" height="152" rx="25" fill="black"/>
<mask id="mask0_2001_994" style="mask-type:luminance" maskUnits="userSpaceOnUse" x="-15" y="0" width="363" height="152">
<path d="M327.415 0H5.58716C-5.75799 0 -14.955 9.1142 -14.955 20.3571V131.643C-14.955 142.886 -5.75799 152 5.58716 152H327.415C338.76 152 347.957 142.886 347.957 131.643V20.3571C347.957 9.1142 338.76 0 327.415 0Z" fill="white"/>
</mask>
<g mask="url(#mask0_2001_994)">
<path d="M327.417 -0.000732422H5.58887C-5.75628 -0.000732422 -14.9533 9.11347 -14.9533 20.3564V131.642C-14.9533 142.885 -5.75628 151.999 5.58887 151.999H327.417C338.762 151.999 347.959 142.885 347.959 131.642V20.3564C347.959 9.11347 338.762 -0.000732422 327.417 -0.000732422Z" fill="white"/>
<g filter="url(#filter0_i_2001_994)">
<path d="M239.973 147.593C216.619 185.203 204.942 204.008 201.97 224.666C200.888 232.198 200.669 239.826 201.326 247.405C203.125 268.197 213.72 287.622 234.906 326.472L247.523 349.598C270.206 391.185 281.546 411.977 300.166 425.385C318.786 438.789 342.246 443.055 389.164 451.578L707.81 509.487C759.307 518.847 785.053 523.529 808.303 516.685C816.739 514.201 824.814 510.641 832.323 506.085C853.007 493.545 866.729 471.451 894.169 427.262C917.523 389.656 929.2 370.851 932.172 350.19C933.259 342.658 933.473 335.031 932.816 327.454C931.022 306.662 920.427 287.237 899.236 248.387L886.623 225.26C863.94 183.674 852.596 162.881 833.976 149.474C815.355 136.068 791.896 131.804 744.978 123.277L426.332 65.3682C374.839 56.0093 349.089 51.3299 325.844 58.1712C317.403 60.6548 309.328 64.2182 301.819 68.771C281.135 81.3128 267.413 103.406 239.973 147.593Z" fill="#F2F4F7" fill-opacity="0.01"/>
</g>
<g filter="url(#filter1_i_2001_994)">
<path d="M420.449 -20.2032C445.771 52.171 458.43 88.3583 459.137 124.401C459.767 156.292 453.618 187.957 441.097 217.341C426.945 250.551 401.642 279.501 351.03 337.401L303.592 391.673C253.017 449.537 227.727 478.467 196.594 497.078C169.05 513.549 138.32 524.099 106.398 528.039C70.3193 532.5 32.3902 525.271 -43.469 510.808L-114.909 497.187C-190.769 482.724 -228.698 475.495 -260.532 458.087C-288.699 442.688 -313.286 421.594 -332.7 396.175C-354.64 367.444 -367.293 331.281 -392.598 258.949L-416.332 191.109C-441.652 118.735 -454.312 82.5474 -455.02 46.5044C-455.646 14.6138 -449.499 -17.051 -436.978 -46.4354C-422.827 -79.6456 -397.522 -108.595 -346.912 -166.494L-299.474 -220.766C-248.895 -278.629 -223.606 -307.561 -192.475 -326.174C-164.931 -342.643 -134.201 -353.191 -102.279 -357.136C-66.2001 -361.594 -28.2705 -354.363 47.5882 -339.901L119.029 -326.281C194.887 -311.82 232.817 -304.589 264.653 -287.184C292.818 -271.784 317.405 -250.689 336.82 -225.269C358.759 -196.539 371.413 -160.373 396.716 -88.0432L420.449 -20.2032Z" fill="#BFFFA4"/>
</g>
<g filter="url(#filter2_if_2001_994)">
<path d="M240.704 -130.466C265.373 -59.9477 277.712 -24.6887 278.402 10.4301C279.009 41.5028 273.02 72.3556 260.822 100.986C247.031 133.345 222.376 161.552 173.065 217.966L150.729 243.519C101.448 299.9 76.8072 328.087 46.475 346.223C19.6368 362.269 -10.3046 372.547 -41.4082 376.393C-76.5614 380.736 -113.518 373.687 -187.431 359.6L-221.203 353.158C-295.117 339.071 -332.074 332.023 -363.091 315.063C-390.536 300.058 -414.493 279.507 -433.407 254.738C-454.785 226.745 -467.114 191.507 -491.769 121.032L-502.944 89.0905C-527.615 18.5724 -539.951 -16.6865 -540.64 -51.8053C-541.25 -82.878 -535.261 -113.731 -523.061 -142.361C-509.273 -174.72 -484.617 -202.927 -435.306 -259.341L-412.969 -284.894C-363.688 -341.274 -339.047 -369.464 -308.715 -387.599C-281.877 -403.645 -251.936 -413.923 -220.832 -417.766C-185.679 -422.11 -148.722 -415.064 -74.8089 -400.974L-41.0367 -394.535C32.8765 -380.444 69.8333 -373.399 100.851 -356.44C128.296 -341.435 152.252 -320.882 171.167 -296.114C192.544 -268.12 204.874 -232.883 229.529 -162.408L240.704 -130.466Z" fill="#BFFFA4"/>
</g>
<g filter="url(#filter3_if_2001_994)">
<path d="M232.211 -489.727C285.028 -436.521 311.436 -409.919 327.267 -378.491C341.272 -350.684 349.224 -320.269 350.598 -289.22C352.155 -254.129 342.098 -218.166 321.985 -146.241L312.874 -113.662C292.774 -41.7804 282.722 -5.84009 263.18 23.4394C245.883 49.3455 223.292 71.3615 196.861 88.0593C166.988 106.931 130.556 116.282 57.6912 134.985L24.3986 143.531C-48.4655 162.234 -84.8978 171.585 -120.258 169.456C-151.544 167.573 -182.083 159.196 -209.893 144.867C-241.324 128.672 -267.717 102.086 -320.503 48.913L-344.428 24.8132C-397.246 -28.3917 -423.656 -54.9944 -439.485 -86.4222C-453.491 -114.229 -461.44 -144.644 -462.817 -175.693C-464.374 -210.784 -454.317 -246.747 -434.203 -318.672L-425.093 -351.251C-404.992 -423.133 -394.941 -459.073 -375.396 -488.352C-358.102 -514.259 -335.507 -536.274 -309.077 -552.972C-279.206 -571.844 -242.774 -581.195 -169.909 -599.898L-136.617 -608.444C-63.7526 -627.148 -27.3203 -636.499 8.03976 -634.368C39.3264 -632.486 69.8649 -624.108 97.675 -609.78C129.105 -593.585 155.499 -566.999 208.287 -513.826L232.211 -489.727Z" fill="#BFFFA4"/>
</g>
<path fill-rule="evenodd" clip-rule="evenodd" d="M202.767 58.574C206.592 58.574 208.158 58.9752 210.746 59.9157C213.777 61.0182 216.165 63.371 217.288 66.3554C219.273 71.6555 219.301 78.7194 217.288 84.0901C216.165 87.0744 213.777 89.4277 210.746 90.5302C208.19 91.4594 206.866 91.9262 202.433 91.9271C199.165 91.928 195.33 90.5302 194.153 89.3874L193.372 90.0353C194.408 91.258 194.974 93.5657 194.974 95.1617V103.78H185.073V59.2295H194.025C194.025 59.2308 194.025 59.2317 194.025 59.2326C194.02 59.9601 193.838 60.6468 193.518 61.2543L194.262 61.5239C194.262 61.5239 197.193 58.574 202.767 58.574ZM205.848 67.3777C203.547 66.3974 200.265 66.4178 198.014 67.3777C196.668 67.9518 195.604 69.1764 195.107 70.7299C194.773 71.7686 194.568 72.9289 194.481 74.1187C194.449 74.5064 194.436 74.8972 194.44 75.2876C194.436 76.9253 194.659 78.562 195.107 79.9621C195.604 81.5156 196.668 82.7406 198.014 83.3147C200.315 84.295 203.593 84.2742 205.848 83.3147C207.194 82.7406 208.258 81.5156 208.756 79.9621C209.208 78.5475 209.427 76.9072 209.422 75.2741C209.422 74.8977 209.409 74.5213 209.381 74.149C209.299 72.9429 209.089 71.7708 208.756 70.7299C208.258 69.1764 207.194 67.9518 205.848 67.3777Z" fill="#181818"/>
<path d="M239.345 78.228C239.925 79.6535 240.322 81.1468 240.523 82.6722L240.6 83.4752H241.618L241.696 82.6722C241.901 81.145 242.262 79.6427 242.782 78.1896L249.516 59.2344H260.152L244.86 97.4714C243.951 99.6519 242.737 101.233 241.262 102.171L241.244 102.18C239.811 103.159 237.519 103.655 234.442 103.655H225.454V94.7617H233.342C234.178 94.7617 234.967 94.3735 235.474 93.7131L235.816 93.2616L220.926 59.2344H231.58L239.345 78.228Z" fill="#181818"/>
<path fill-rule="evenodd" clip-rule="evenodd" d="M118.132 59.9717C123.202 58.1278 130.579 58.0884 135.758 59.9717C138.79 61.0742 141.18 63.427 142.3 66.4114C143.581 69.8273 144.048 73.9752 143.678 77.9303H137.101V77.9403H119.661C119.771 78.6238 119.924 79.282 120.12 79.8946C120.618 81.448 121.68 82.6731 123.027 83.2472C125.33 84.2275 128.608 84.2067 130.862 83.2472C131.739 82.8735 132.495 82.2239 133.054 81.3874H143.125C142.905 82.3419 142.63 83.2671 142.3 84.146C141.18 87.1304 138.79 89.4837 135.758 90.5861C130.687 92.4296 123.31 92.4689 118.132 90.5861C115.1 89.4837 112.709 87.1304 111.59 84.146C109.601 78.8459 109.575 71.7825 111.59 66.4114C112.709 63.427 115.1 61.0742 118.132 59.9717ZM130.862 67.3102C128.56 66.3299 125.281 66.3503 123.027 67.3102C121.68 67.8843 120.618 69.1089 120.12 70.6624C119.921 71.2839 119.767 71.9485 119.657 72.637H134.232C134.122 71.9462 133.968 71.2812 133.769 70.6624C133.272 69.1089 132.209 67.8843 130.862 67.3102Z" fill="#181818"/>
<path d="M174.17 82.1697C175.093 82.1697 176.016 82.3068 176.769 82.5804C177.594 82.8799 178.241 83.5173 178.546 84.3284C179.133 85.8919 179.133 87.9932 178.546 89.5566C178.241 90.3677 177.594 91.0051 176.769 91.3046C175.263 91.852 173.077 91.8524 171.571 91.3046C170.746 91.0051 170.098 90.3677 169.794 89.5566C169.207 87.9932 169.207 85.8919 169.794 84.3284C170.098 83.5173 170.746 82.8799 171.571 82.5804C172.324 82.3068 173.247 82.1697 174.17 82.1697Z" fill="#181818"/>
<path fill-rule="evenodd" clip-rule="evenodd" d="M90.4884 48.0951C93.5191 48.1173 96.5466 48.5661 99.0573 49.4545C102.089 50.5276 104.48 52.8175 105.599 55.7218C107.368 60.3103 107.368 66.4758 105.599 71.0643C104.732 73.3145 102.454 76.3807 99.0125 77.5157C95.8874 78.5467 93.1142 78.6729 90.766 78.6829C88.1827 78.6937 84.1249 78.3418 82.4217 76.8268L81.8306 77.318C82.3788 78.1925 82.6764 78.9412 82.755 79.9631C83.0914 84.3481 83.5598 91.1939 83.5607 91.2021H72.855V48.0942H90.4884V48.0951ZM82.755 70.0483H90.6957V70.0392C91.9364 69.9976 93.1516 69.7868 94.1614 69.4104C95.5085 68.9083 96.5712 67.8357 97.0688 66.4758C97.7056 64.7355 97.6746 61.9656 97.0688 60.3103C96.5712 58.9505 95.5085 57.8783 94.1614 57.3757C93.1402 56.9953 91.9264 56.7872 90.6957 56.7465V56.7388H82.755V70.0483Z" fill="#181818"/>
<path d="M173.768 68.1191H159.613V91.1833H149.687V78.1118C149.687 73.5002 149.687 70.1684 150.045 67.5663C150.411 64.9054 151.13 63.2208 152.449 61.9324C153.767 60.6445 155.493 59.9424 158.216 59.5845C160.881 59.2344 164.291 59.2344 169.011 59.2344H173.768V68.1191Z" fill="#181818"/>
</g>
</g>
<defs>
<filter id="filter0_i_2001_994" x="132.369" y="-13.6707" width="800.819" height="533.612" filterUnits="userSpaceOnUse" color-interpolation-filters="sRGB">
<feFlood flood-opacity="0" result="BackgroundImageFix"/>
<feBlend mode="normal" in="SourceGraphic" in2="BackgroundImageFix" result="shape"/>
<feColorMatrix in="SourceAlpha" type="matrix" values="0 0 0 0 0 0 0 0 0 0 0 0 0 0 0 0 0 0 127 0" result="hardAlpha"/>
<feOffset dx="-515.303" dy="-347.809"/>
<feGaussianBlur stdDeviation="34.2935"/>
<feComposite in2="hardAlpha" operator="arithmetic" k2="-1" k3="1"/>
<feColorMatrix type="matrix" values="0 0 0 0 0.74902 0 0 0 0 1 0 0 0 0 0.643137 0 0 0 1 0"/>
<feBlend mode="normal" in2="shape" result="effect1_innerShadow_2001_994"/>
</filter>
<filter id="filter1_i_2001_994" x="-541.013" y="-358.444" width="1000.19" height="973.741" filterUnits="userSpaceOnUse" color-interpolation-filters="sRGB">
<feFlood flood-opacity="0" result="BackgroundImageFix"/>
<feBlend mode="normal" in="SourceGraphic" in2="BackgroundImageFix" result="shape"/>
<feColorMatrix in="SourceAlpha" type="matrix" values="0 0 0 0 0 0 0 0 0 0 0 0 0 0 0 0 0 0 127 0" result="hardAlpha"/>
<feOffset dx="-160.333" dy="214.316"/>
<feGaussianBlur stdDeviation="42.9747"/>
<feComposite in2="hardAlpha" operator="arithmetic" k2="-1" k3="1"/>
<feColorMatrix type="matrix" values="0 0 0 0 0.117647 0 0 0 0 0.870588 0 0 0 0 0.482353 0 0 0 1 0"/>
<feBlend mode="normal" in2="shape" result="effect1_innerShadow_2001_994"/>
</filter>
<filter id="filter2_if_2001_994" x="-579.588" y="-492.947" width="871.335" height="883.917" filterUnits="userSpaceOnUse" color-interpolation-filters="sRGB">
<feFlood flood-opacity="0" result="BackgroundImageFix"/>
<feBlend mode="normal" in="SourceGraphic" in2="BackgroundImageFix" result="shape"/>
<feColorMatrix in="SourceAlpha" type="matrix" values="0 0 0 0 0 0 0 0 0 0 0 0 0 0 0 0 0 0 127 0" result="hardAlpha"/>
<feOffset dx="-38.9054" dy="-73.9068"/>
<feGaussianBlur stdDeviation="41.8725"/>
<feComposite in2="hardAlpha" operator="arithmetic" k2="-1" k3="1"/>
<feColorMatrix type="matrix" values="0 0 0 0 0.117647 0 0 0 0 0.870588 0 0 0 0 0.482353 0 0 0 1 0"/>
<feBlend mode="normal" in2="shape" result="effect1_innerShadow_2001_994"/>
<feGaussianBlur stdDeviation="6.65163" result="effect2_foregroundBlur_2001_994"/>
</filter>
<filter id="filter3_if_2001_994" x="-486.642" y="-682.419" width="845.412" height="860.187" filterUnits="userSpaceOnUse" color-interpolation-filters="sRGB">
<feFlood flood-opacity="0" result="BackgroundImageFix"/>
<feBlend mode="normal" in="SourceGraphic" in2="BackgroundImageFix" result="shape"/>
<feColorMatrix in="SourceAlpha" type="matrix" values="0 0 0 0 0 0 0 0 0 0 0 0 0 0 0 0 0 0 127 0" result="hardAlpha"/>
<feOffset dx="-23.6679" dy="-47.7524"/>
<feGaussianBlur stdDeviation="41.8725"/>
<feComposite in2="hardAlpha" operator="arithmetic" k2="-1" k3="1"/>
<feColorMatrix type="matrix" values="0 0 0 0 0.117647 0 0 0 0 0.870588 0 0 0 0 0.482353 0 0 0 1 0"/>
<feBlend mode="normal" in2="shape" result="effect1_innerShadow_2001_994"/>
<feGaussianBlur stdDeviation="4.00701" result="effect2_foregroundBlur_2001_994"/>
</filter>
<clipPath id="clip0_2001_994">
<rect width="333" height="152" rx="25" fill="white"/>
</clipPath>
</defs>
</svg>
