<svg width="1200" height="373" viewBox="0 0 1200 373" fill="none" xmlns="http://www.w3.org/2000/svg">
<path d="M1229.02 694.717L1204.97 407.592C1198.3 327.997 1194.97 288.199 1177.3 253.548C1159.63 218.897 1129.37 192.827 1068.86 140.687L1028.77 106.14C960.681 47.4685 926.637 18.1325 884.845 6.16302C843.053 -5.8065 798.64 1.05856 709.814 14.7887L306.191 77.178C163.375 99.2536 91.9664 110.291 45.6813 158.169C-0.604004 206.047 -9.22095 277.787 -26.455 421.269L-50.3567 620.262C-64.3052 736.39 -71.2794 794.454 -48.4208 844.865C-25.5623 895.277 22.7098 928.29 119.254 994.317L279.807 1104.12L279.808 1104.12C343.204 1147.48 374.901 1169.15 411.424 1177.54C447.947 1185.93 485.927 1180.25 561.885 1168.89H561.886L893.003 1119.38C1066.94 1093.37 1153.91 1080.36 1202.48 1018.98C1251.05 957.604 1243.7 869.975 1229.02 694.717Z" fill="black"/>
</svg>
