<svg width="375" height="275" viewBox="0 0 375 275" fill="none" xmlns="http://www.w3.org/2000/svg">
<path d="M391.507 420.369L377.701 133.047C376.415 106.275 375.771 92.8884 370.065 81.1877C364.358 69.487 354.205 60.7387 333.9 43.2421L323.09 33.9267L323.09 33.9267C301.325 15.1728 290.443 5.79579 277.085 1.96984C263.726 -1.85611 249.53 0.33825 221.138 4.72698L97.5443 23.8312C49.459 31.2639 25.4164 34.9803 10.3955 51.38C-4.62546 67.7797 -6.22156 92.0554 -9.41379 140.607L-26.2643 396.892C-28.5767 432.061 -29.7329 449.646 -22.3954 464.733C-15.0579 479.821 -0.511627 489.769 28.5808 509.665L83.6897 547.354C103.954 561.213 114.086 568.142 125.76 570.823C137.434 573.503 149.574 571.688 173.853 568.057H173.854L283.805 551.616C337.605 543.571 364.505 539.549 379.964 520.71C395.423 501.871 394.118 474.704 391.507 420.369Z" fill="black"/>
</svg>
