<svg width="503" height="541" viewBox="0 0 503 541" fill="none" xmlns="http://www.w3.org/2000/svg">
<path d="M3.52096 210.833L15.6139 339.321C19.2533 377.99 21.073 397.324 31.6264 412.528C42.1798 427.733 59.6564 436.2 94.6094 453.134L214.004 510.977C258.917 532.736 281.373 543.616 304.098 539.444C326.822 535.273 343.95 517.127 378.207 480.836L451.148 403.561L451.149 403.561C468.095 385.608 476.568 376.632 481.468 365.569C486.369 354.506 487.324 342.199 489.234 317.586L499.224 188.872C503.571 132.859 505.745 104.852 490.981 84.0249C476.218 63.1978 449.071 55.9753 394.778 41.5304L274.466 9.52077C247.477 2.34028 233.983 -1.24996 220.469 0.393614C206.956 2.03719 194.715 8.75739 170.235 22.1978L76.1275 73.8645C36.6912 95.5158 16.9731 106.341 7.08532 124.994C-2.80246 143.647 -0.694658 166.043 3.52096 210.833Z" fill="black"/>
</svg>
