<svg width="489" height="465" viewBox="0 0 489 465" fill="none" xmlns="http://www.w3.org/2000/svg">
<path d="M0.849847 161.1L4.23159 278.231C5.58731 325.189 6.26517 348.667 19.206 366.368C32.1468 384.069 54.3132 391.838 98.6461 407.376L220.06 449.93C250.249 460.51 265.343 465.801 280.748 464.34C296.153 462.879 309.984 454.846 337.647 438.78L415.136 393.776C448.524 374.384 465.219 364.688 474.594 348.845C483.97 333.002 484.434 313.702 485.363 275.102L488.229 155.989C489.734 93.4756 490.486 62.219 471.97 41.4228C453.455 20.6265 422.321 17.7589 360.053 12.0237L241.987 1.14918C232.603 0.284851 227.911 -0.147312 223.217 0.0456207C218.523 0.238553 213.882 1.05431 204.6 2.68583L117.516 17.9936C60.1987 28.0689 31.5401 33.1066 14.9354 53.4745C-1.6694 73.8424 -0.829652 102.928 0.849847 161.1Z" fill="black"/>
</svg>
