<svg width="488" height="446" viewBox="0 0 488 446" fill="none" xmlns="http://www.w3.org/2000/svg">
<path d="M2.4297 284.164L9.03984 173.516C11.9369 125.022 13.3854 100.775 27.5591 83.2045C41.7328 65.6335 65.1241 59.0869 111.907 45.9937L239.1 10.3954C266.976 2.59366 280.914 -1.30721 294.895 0.393109C308.877 2.09343 321.473 9.22131 346.667 23.4771L408.74 58.6014C441.856 77.3406 458.415 86.7102 467.942 102.178C477.469 117.646 478.386 136.649 480.22 174.656L485.713 288.483C488.848 353.453 490.416 385.938 471.374 407.442C452.333 428.946 419.897 431.322 355.025 436.074L231.147 445.148L231.146 445.148C223.239 445.727 219.285 446.016 215.332 445.863C211.38 445.709 207.46 445.113 199.623 443.922L199.621 443.922L122.129 432.143C61.6298 422.947 31.38 418.349 14.1679 397.071C-3.04419 375.792 -1.21956 345.249 2.4297 284.164Z" fill="black"/>
</svg>
