<svg width="505" height="530" viewBox="0 0 505 530" fill="none" xmlns="http://www.w3.org/2000/svg">
<path d="M5.30053 311.639L19.6047 197.92C24.0332 162.714 26.2475 145.11 35.8528 131.036C45.458 116.963 61.0438 108.485 92.2152 91.5306L200.168 32.8132C243.416 9.28975 265.04 -2.47196 287.69 0.435192C310.34 3.34234 328.293 20.1837 364.198 53.8665L438.362 123.439C456.532 140.485 465.618 149.008 471.198 159.864C476.779 170.719 478.423 183.068 481.711 207.764L497.479 326.208C504.903 381.979 508.616 409.865 494.984 431.486C481.352 453.107 454.591 461.78 401.068 479.125L285.273 516.652C256.627 525.935 242.304 530.577 227.75 529.189C213.197 527.801 200.009 520.535 173.634 506.004L77.2418 452.897L77.2416 452.897C36.6139 430.514 16.3 419.322 6.45845 399.998C-3.38311 380.673 -0.488561 357.662 5.30053 311.639Z" fill="black"/>
</svg>
