<svg width="471" height="498" viewBox="0 0 471 498" fill="none" xmlns="http://www.w3.org/2000/svg">
<path d="M3.93169 323.484L14.7016 195.014C16.1348 177.918 16.8514 169.37 19.5492 161.316C22.247 153.261 26.8233 146.006 35.976 131.495L71.5536 75.0917C97.8727 33.3663 111.032 12.5036 132.266 3.99266C153.5 -4.51827 177.426 1.48004 225.278 13.4767L344.575 43.3849C390.403 54.8743 413.317 60.619 427.847 77.1875C442.376 93.7561 445.078 117.224 450.484 164.161L465.736 296.595C470.484 337.817 472.858 358.429 464.697 376.301C456.537 394.174 439.408 405.88 405.149 429.293L345.641 469.962L345.64 469.962C323.048 485.402 311.752 493.122 298.738 496.109C285.725 499.095 272.193 497.073 245.129 493.029L123.741 474.891C61.719 465.623 30.7083 460.99 13.3909 439.105C-3.92644 417.22 -1.30706 385.975 3.93169 323.484Z" fill="black"/>
</svg>
