<svg width="408" height="475" viewBox="0 0 408 475" fill="none" xmlns="http://www.w3.org/2000/svg">
<path d="M1.31289 272.21L16.8947 126.186C23.2973 66.1846 26.4985 36.1839 46.6238 18.092C66.749 0 96.92 0 157.262 0H249.23C309.22 0 339.214 0 359.301 17.9433C379.388 35.8866 382.759 65.691 389.5 125.3V125.3L405.856 269.916C407.351 283.142 408.099 289.754 407.608 296.352C407.117 302.949 405.398 309.378 401.961 322.237L389.204 369.957C375.747 420.298 369.018 445.468 350.005 460.066C330.992 474.664 304.938 474.664 252.829 474.664H148.076C89.4472 474.664 60.133 474.664 40.201 457.296C20.2689 439.927 16.2588 410.888 8.23861 352.811L1.84308 306.499C0.662993 297.953 0.0729501 293.68 0.00643009 289.378C-0.0600899 285.076 0.39757 280.787 1.31289 272.21Z" fill="black"/>
</svg>
