<svg width="491" height="532" viewBox="0 0 491 532" fill="none" xmlns="http://www.w3.org/2000/svg">
<path d="M5.29671 302.391L21.4304 184.952C26.6657 146.844 29.2833 127.791 40.3153 113.131C51.3472 98.472 68.9317 90.6814 104.101 75.1003L211.192 27.6547C259.129 6.41673 283.098 -4.20224 306.498 1.54713C329.898 7.2965 346.217 27.8139 378.854 68.8485L437.71 142.85C449.688 157.909 455.676 165.439 459.414 174.176C463.152 182.914 464.461 192.445 467.08 211.508L467.08 211.508L483.237 329.115C491.115 386.457 495.053 415.128 480.861 437.106C466.668 459.084 438.915 467.289 383.41 483.699L383.409 483.699L264.775 518.774C230.744 528.835 213.728 533.866 196.982 530.709C180.236 527.552 166.22 516.671 138.188 494.909L58.5825 433.111C27.1638 408.72 11.4544 396.524 4.31547 379.011C-2.82347 361.498 -0.116741 341.796 5.29671 302.391Z" fill="black"/>
</svg>
